Genre:Action | Drama | Comedy
Language:
IMDb:http://www.imdb.com/title/tt1268987/
Source:NTSC

General
Complete name :Operation.Endgame.2010.DVDRip.H264.FEEL-FREE.mp4
Format : MPEG-4
Format profile : Base Media
Codec ID : isom
File size : 759 MiB
Duration : 1h 22mn
Overall bit rate : 1 292 Kbps
 
http://www.starshare.ro/bitbucket/Operation.Endgame.2010.DVDRip.H264.FEEL-FREE.mp4_thumbs_%5B2010.07.27_19.14.12%5D.jpg
 
http://www.starshare.ro/bitbucket/Operation.Endgame.2010.DVDRip.H264.FEEL-FREE.mp4_snapshot_01.08.53_%5B2010.07.27_19.18.36%5D.jpg
 
http://www.starshare.ro/bitbucket/Operation.Endgame.2010.DVDRip.H264.FEEL-FREE.mp4_snapshot_01.15.48_%5B2010.07.27_19.18.46%5D.jpg

Video #1
ID : 1
Format : MPEG-4 Visual
Codec ID : 20
Duration : 1h 22mn
Bit rate mode : Variable
Bit rate : 1 159 Kbps
Width : 688 pixels
Height : 288 pixels
Display aspect ratio : 2.35:1
Frame rate mode : Constant
Frame rate : 29.970 fps
Resolution : 24 bits
Colorimetry : 4:2:0
Scan type : Progressive
Bits/(Pixel*Frame) : 0.195
Stream size : 681 MiB (90%)
Audio #2
ID : 2
Format : AAC
Format/Info : Advanced Audio Codec
Format version : Version 4
Format profile : LC
Format settings, SBR : No
Codec ID : 40
Duration : 1h 22mn
Bit rate mode : Variable
Bit rate : 128 Kbps
Channel(s) : 2 channels
Channel positions : L R
Sampling rate : 48.0 KHz
Resolution : 16 bits
Stream size : 75.0 MiB (10%)
Plot:
A battle ensues among groups of government spy teams in an underground facility after their boss is assassinated.
 
http://img801.imageshack.us/img801/3511/28mfoyb.jpg